<svg width="512" height="512" viewBox="0 0 512 512" fill="none" xmlns="http://www.w3.org/2000/svg">
<path d="M461.2 128H80C71.16 128 64 120.84 64 112C64 103.16 71.16 96 80 96H464C472.84 96 480 88.84 480 80C480 53.49 458.51 32 432 32H64C28.65 32 0 60.65 0 96V416C0 451.35 28.65 480 64 480H461.2C489.22 480 512 458.47 512 432V176C512 149.53 489.22 128 461.2 128ZM416 336C398.33 336 384 321.67 384 304C384 286.33 398.33 272 416 272C433.67 272 448 286.33 448 304C448 321.67 433.67 336 416 336Z" fill="white"/>
</svg>
