<svg width="576" height="512" viewBox="0 0 576 512" fill="none" xmlns="http://www.w3.org/2000/svg">
<g clip-path="url(#clip0)">
<path d="M96 128C108.658 128 121.032 124.246 131.556 117.214C142.081 110.182 150.284 100.186 155.128 88.4918C159.972 76.7973 161.24 63.929 158.77 51.5143C156.301 39.0995 150.205 27.6958 141.255 18.7452C132.304 9.79463 120.901 3.69922 108.486 1.22977C96.071 -1.23968 83.2027 0.02773 71.5083 4.87174C59.8138 9.71575 49.8184 17.9188 42.7859 28.4435C35.7535 38.9683 32 51.342 32 64C32 80.9739 38.7428 97.2525 50.7452 109.255C62.7475 121.257 79.0261 128 96 128ZM96 304.08C95.9857 298.1 97.1875 292.18 99.5324 286.679C101.877 281.178 105.316 276.211 109.64 272.08L181.77 204C183.42 202.45 185.54 201.69 187.38 200.43C182.674 188.516 174.496 178.292 163.908 171.082C153.32 163.873 140.81 160.012 128 160H64C47.0261 160 30.7475 166.743 18.7452 178.745C6.74284 190.748 0 207.026 0 224L0 320C0 328.487 3.37142 336.626 9.37258 342.627C15.3737 348.629 23.5131 352 32 352V480C32 488.487 35.3714 496.626 41.3726 502.627C47.3737 508.629 55.5131 512 64 512H128C136.487 512 144.626 508.629 150.627 502.627C156.629 496.626 160 488.487 160 480V383.61L109.64 336.08C105.315 331.95 101.875 326.984 99.5299 321.482C97.185 315.981 95.984 310.06 96 304.08V304.08ZM480 128C492.658 128 505.032 124.246 515.557 117.214C526.081 110.182 534.284 100.186 539.128 88.4918C543.972 76.7973 545.24 63.929 542.77 51.5143C540.301 39.0995 534.205 27.6958 525.255 18.7452C516.304 9.79463 504.901 3.69922 492.486 1.22977C480.071 -1.23968 467.203 0.02773 455.508 4.87174C443.814 9.71575 433.818 17.9188 426.786 28.4435C419.754 38.9683 416 51.342 416 64C416 80.9739 422.743 97.2525 434.745 109.255C446.748 121.257 463.026 128 480 128ZM512 160H448C435.192 160.011 422.682 163.871 412.094 171.078C401.506 178.286 393.328 188.508 388.62 200.42C390.46 201.69 392.62 202.42 394.24 204.01L466.36 272.07C470.671 276.211 474.101 281.179 476.443 286.678C478.786 292.177 479.994 298.093 479.994 304.07C479.994 310.047 478.786 315.963 476.443 321.462C474.101 326.961 470.671 331.93 466.36 336.07L416 383.62V480C416 488.487 419.371 496.626 425.373 502.627C431.374 508.629 439.513 512 448 512H512C520.487 512 528.626 508.629 534.627 502.627C540.629 496.626 544 488.487 544 480V352C552.487 352 560.626 348.629 566.627 342.627C572.629 336.626 576 328.487 576 320V224C576 207.026 569.257 190.748 557.255 178.745C545.252 166.743 528.974 160 512 160V160ZM444.4 295.34L372.28 227.28C370.578 225.657 368.436 224.57 366.121 224.155C363.806 223.739 361.42 224.013 359.26 224.942C357.099 225.871 355.259 227.414 353.969 229.38C352.678 231.346 351.993 233.648 352 236V272H224V236C224.009 233.647 223.326 231.344 222.036 229.376C220.746 227.409 218.906 225.864 216.745 224.934C214.584 224.003 212.197 223.729 209.881 224.144C207.565 224.56 205.423 225.647 203.72 227.27L131.6 295.34C129.295 297.663 128.001 300.803 128.001 304.075C128.001 307.348 129.295 310.487 131.6 312.81L203.72 380.88C205.424 382.504 207.567 383.591 209.884 384.006C212.2 384.421 214.588 384.146 216.749 383.215C218.911 382.283 220.751 380.737 222.04 378.767C223.329 376.798 224.011 374.494 224 372.14V336H352V372.14C351.989 374.494 352.671 376.798 353.96 378.767C355.249 380.737 357.089 382.283 359.251 383.215C361.412 384.146 363.8 384.421 366.116 384.006C368.433 383.591 370.576 382.504 372.28 380.88L444.4 312.81C446.705 310.487 447.999 307.348 447.999 304.075C447.999 300.803 446.705 297.663 444.4 295.34V295.34Z" fill="white"/>
</g>
<defs>
<clipPath id="clip0">
<rect width="576" height="512" fill="white"/>
</clipPath>
</defs>
</svg>
