<?xml version="1.0" standalone="no"?>
<!DOCTYPE svg PUBLIC "-//W3C//DTD SVG 20010904//EN" "http://www.w3.org/TR/2001/REC-SVG-20010904/DTD/svg10.dtd">
<!-- Created using Krita: http://krita.org -->
<svg xmlns="http://www.w3.org/2000/svg" 
    xmlns:xlink="http://www.w3.org/1999/xlink"
    xmlns:krita="http://krita.org/namespaces/svg/krita"
    xmlns:sodipodi="http://sodipodi.sourceforge.net/DTD/sodipodi-0.dtd"
    width="665.28pt"
    height="558.72pt"
    viewBox="0 0 665.28 558.72">
<defs/>
<rect id="shape0" transform="matrix(0.876607822647355 0.48120549173245 -0.48120549173245 0.876607822647355 731.864308745271 186.943589935364)" fill="#ffffff" fill-rule="evenodd" stroke="#000000" stroke-width="3.1824" stroke-linecap="square" stroke-linejoin="bevel" width="116.731157106194" height="189.30404404545"/><path id="shape1" transform="translate(675.011548872688, 222.176864928053)" fill="#ffffff" fill-rule="evenodd" stroke="#000000" stroke-width="3.1824" stroke-linecap="square" stroke-linejoin="miter" stroke-miterlimit="2" d="M0 106.56L60.48 0"/><rect id="shape2" transform="matrix(0.874436800120493 0.485139446546079 -0.485139446546079 0.874436800120493 627.678110663083 348.894942875968)" fill="#ffffff" fill-rule="evenodd" stroke="#000000" stroke-width="3.1824" stroke-linecap="square" stroke-linejoin="bevel" width="144" height="28.8" rx="12.2334145587971" ry="12.2334145587971"/><rect id="shape0" transform="matrix(0.874436806638652 0.485139450162368 -0.485139450162368 0.874436806638652 733.937214254052 156.11395770551)" fill="#ffffff" stroke="#000000" stroke-width="3.1824" stroke-linecap="square" stroke-linejoin="bevel" width="144" height="28.8" rx="12.2334145587971" ry="12.2334145587971"/><rect id="shape3" transform="matrix(0.471889925176719 -0.881657472330789 0.881657472330789 0.471889925176719 779.13486482133 342.935124850477)" fill="#ffffff" fill-rule="evenodd" stroke="#000000" stroke-width="3.1824" stroke-linecap="square" stroke-linejoin="bevel" width="48.6271696889881" height="397.485595148695"/><path id="shape4" transform="translate(737.041091267819, 594.136868227408)" fill="#ffffff" fill-rule="evenodd" stroke="#000000" stroke-width="3.6576" stroke-linecap="square" stroke-linejoin="miter" stroke-miterlimit="2" d="M0 0L244.08 0"/><path id="shape5" transform="translate(683.721091580488, 583.776868470595)" fill="#ffffff" fill-rule="evenodd" stroke="#000000" stroke-width="3.6576" stroke-linecap="square" stroke-linejoin="miter" stroke-miterlimit="2" d="M0 0L226.893 0"/><rect id="shape01" transform="matrix(0.999999976976893 0 0 0.999999976976893 671.678349440345 540.816868540077)" fill="#ffffff" stroke="#000000" stroke-width="3.6576" stroke-linecap="square" stroke-linejoin="bevel" width="464.399996375354" height="28.5200025101286" rx="19.9572463477738" ry="14.2600012550643"/><path id="shape6" transform="matrix(0.00485937557981072 0.999988193164789 -0.999988193164789 0.00485937557981072 695.470144469312 540.595761862593)" sodipodi:type="arc" sodipodi:rx="54.6884677090732" sodipodi:ry="88.3180388496572" sodipodi:cx="54.573928212471" sodipodi:cy="-2.16285435615047e-14" sodipodi:start="6.28318530717959" sodipodi:end="3.07686042140514" sodipodi:open="true" d="M0 5.71303C1.90922 53.2773 26.8445 89.8142 56.3437 88.2718C85.8429 86.7294 109.262 47.6641 109.262 -4.02638e-16" fill="#ffffff" fill-rule="evenodd" stroke="#000000" stroke-width="3.6576" stroke-linecap="square" stroke-linejoin="bevel"/><rect id="shape02" transform="matrix(0.999999974979939 0 0 0.999999974979939 673.275619862886 620.826129256516)" fill="#ffffff" stroke="#000000" stroke-width="3.6576" stroke-linecap="square" stroke-linejoin="bevel" width="464.399996375354" height="28.5200025101286" rx="20.474515901515" ry="14.2600012550643"/><path id="shape7" transform="translate(687.361091534167, 610.976867949483)" fill="#ffffff" fill-rule="evenodd" stroke="#000000" stroke-width="3.6576" stroke-linecap="square" stroke-linejoin="miter" stroke-miterlimit="2" d="M0 1.13687e-13L426.612 0"/><path id="shape8" transform="translate(956.641097813431, 583.616836252983)" fill="#ffffff" fill-rule="evenodd" stroke="#000000" stroke-width="3.6576" stroke-linecap="square" stroke-linejoin="miter" stroke-miterlimit="2" d="M0 0L155.52 0"/>
</svg>
