<svg xmlns="http://www.w3.org/2000/svg" xmlns:xlink="http://www.w3.org/1999/xlink" viewBox="0 0 101.22 28.38"><defs><style>.cls-1{fill:url(#linear-gradient);}.cls-2{fill:#fff;}.cls-3{fill:url(#linear-gradient-2);}.cls-4{fill:url(#linear-gradient-3);}.cls-5{fill:url(#linear-gradient-4);}.cls-6{fill:url(#linear-gradient-5);}.cls-7{fill:url(#linear-gradient-6);}</style><linearGradient id="linear-gradient" x1="30.52" y1="21.42" x2="104.97" y2="21.42" gradientUnits="userSpaceOnUse"><stop offset="0" stop-color="#8f5207"/><stop offset="0.18" stop-color="#e9de54"/><stop offset="0.45" stop-color="#c19409"/><stop offset="0.81" stop-color="#e8dc52"/><stop offset="1" stop-color="#8f5207"/></linearGradient><linearGradient id="linear-gradient-2" x1="2.86" y1="25.53" x2="26.46" y2="1.92" xlink:href="#linear-gradient"/><linearGradient id="linear-gradient-3" x1="0.38" y1="23.05" x2="23.99" y2="-0.55" xlink:href="#linear-gradient"/><linearGradient id="linear-gradient-4" x1="5.34" y1="28" x2="28.94" y2="4.4" xlink:href="#linear-gradient"/><linearGradient id="linear-gradient-5" x1="6.59" y1="29.25" x2="30.19" y2="5.65" xlink:href="#linear-gradient"/><linearGradient id="linear-gradient-6" x1="-1.03" y1="21.64" x2="22.58" y2="-1.97" xlink:href="#linear-gradient"/></defs><title>Ресурс 3</title><g id="Слой_2" data-name="Слой 2"><g id="Layer_1" data-name="Layer 1"><rect class="cls-1" x="86.09" y="20.98" width="15.06" height="0.89"/><path class="cls-2" d="M34.8,8.2c0-.69,0-1.41-.09-2.17,0-.36,0-.7-.08-1H37v6.55c0,.76,0,1.48.08,2.16,0,.27,0,.61.09,1H34.67c0-.63.08-1.3.11-2,0-.37,0-.75,0-1.14Zm8.66,6.48-.05,0a.4.4,0,0,1-.16,0,2.23,2.23,0,0,1-.56.06,5.73,5.73,0,0,1-.87-.08,3.86,3.86,0,0,1-2.13-2l-.31-.55-.14-.24c-.2-.35-.34-.61-.43-.79A3.08,3.08,0,0,0,38,10a.87.87,0,0,0-.27-.14l-.14,0L37.42,9l1.33-1.76a11,11,0,0,0,.93-1.39c.11-.17.22-.36.33-.56L40.18,5h2a11.05,11.05,0,0,0-1,1.05c-.24.29-.48.59-.71.89L38.68,9.29a2.74,2.74,0,0,1,1.85.83A5.42,5.42,0,0,1,41.75,12,6.72,6.72,0,0,0,43,14.06a1.65,1.65,0,0,0,.54.42Z"/><path class="cls-2" d="M50.92,4.92l2.64,6.63c.17.42.33.8.48,1.15l.55,1.15a9.68,9.68,0,0,0,.46.88h-2.8l0-.15,0-.07,0-.09c-.1-.4-.17-.68-.21-.82-.2-.65-.36-1.15-.48-1.52,0-.15-.15-.42-.31-.82L51.08,11l-.2,0a5.41,5.41,0,0,0-.59,0H49c-.48,0-.87,0-1.17,0-.29.76-.61,1.62-1,2.6l-.26.77a2.53,2.53,0,0,0-.09.34H44.93c.3-.57.62-1.24,1-2,.15-.32.31-.69.49-1.11l2.78-6.55ZM48.2,10.1a7.14,7.14,0,0,0,.78,0h1.77L49.48,6.87Z"/><path class="cls-2" d="M60.4,9.67h.24a1.76,1.76,0,0,0,.62-.07,1.52,1.52,0,0,0,.83-.54,2.19,2.19,0,0,0,.43-1.44A1.88,1.88,0,0,0,62,6.27,1.48,1.48,0,0,0,61.57,6,1.77,1.77,0,0,0,61,5.82H60v5.74q0,1.14.09,2.16c0,.27,0,.61.09,1H57.67c0-.63.08-1.3.11-2,0-.37,0-.75,0-1.14V8.2c0-.69,0-1.41-.09-2.17q0-.54-.09-1h1.2c.47,0,1,0,1.51,0s.88,0,1.11,0a5.84,5.84,0,0,1,1.36.15,2.52,2.52,0,0,1,1.05.55,2.51,2.51,0,0,1,.69,1.93,2.66,2.66,0,0,1-1,2.28,3,3,0,0,1-1.17.54,5.65,5.65,0,0,1-1.53.17h-.16Z"/><path class="cls-2" d="M67.49,8.2c0-.69,0-1.41-.09-2.17,0-.36,0-.7-.08-1h9.35c-.07.54-.12,1.22-.16,2,0,.34,0,.72,0,1.15v3.36c0,.64,0,1.37.07,2.16,0,.44,0,.78.07,1h-2.5c.08-.79.12-1.56.15-2.29,0-.37,0-.78,0-1.24v-5l-.22-.07A6,6,0,0,0,73,5.94c-.23,0-.54,0-.91,0h-.21A10,10,0,0,0,70.35,6l-.45.09a.86.86,0,0,0-.22.08v5.37c0,.76,0,1.48.08,2.16,0,.27,0,.61.09,1H67.36c0-.63.09-1.3.11-2,0-.37,0-.75,0-1.14Z"/><path class="cls-2" d="M82.88,14.6a5.29,5.29,0,0,1-1.77-1A4.42,4.42,0,0,1,79.94,12a5,5,0,0,1-.41-2.06A5.23,5.23,0,0,1,80.34,7a4.58,4.58,0,0,1,2-1.67A6.3,6.3,0,0,1,85,4.79a6.63,6.63,0,0,1,2.22.35,5.13,5.13,0,0,1,1.77,1,4.61,4.61,0,0,1,1.16,1.6,5.13,5.13,0,0,1,.41,2.07,5.3,5.3,0,0,1-.8,2.94,4.6,4.6,0,0,1-2,1.67A6.33,6.33,0,0,1,85.1,15,6.67,6.67,0,0,1,82.88,14.6Zm-.79-3.09a4.48,4.48,0,0,0,.59,1.33,2.89,2.89,0,0,0,1,.91,2.53,2.53,0,0,0,1.29.33,3,3,0,0,0,1.2-.26,3.1,3.1,0,0,0,1-.77A4.22,4.22,0,0,0,88,11.7a5.79,5.79,0,0,0,.27-1.84A6.12,6.12,0,0,0,88,8.23a4.5,4.5,0,0,0-.6-1.33,2.92,2.92,0,0,0-1-.91,2.53,2.53,0,0,0-1.29-.33,2.87,2.87,0,0,0-1.2.27,3.06,3.06,0,0,0-1,.77,4,4,0,0,0-.76,1.35,5.75,5.75,0,0,0-.27,1.84A6.09,6.09,0,0,0,82.09,11.51Z"/><path class="cls-2" d="M93.44,8.2c0-.69,0-1.41-.09-2.17q0-.54-.09-1h.89c.33,0,.65,0,.93,0q1.14-.06,1.71-.06l1,0a2.55,2.55,0,0,1,1.69.76,2,2,0,0,1,.4.69,2.67,2.67,0,0,1,.14.86,2,2,0,0,1-.52,1.45,2.71,2.71,0,0,1-1.39.67,4.22,4.22,0,0,1,2.2.66,2.14,2.14,0,0,1,.92,1.86,2.77,2.77,0,0,1-.28,1.25,2.54,2.54,0,0,1-.82.91,3.81,3.81,0,0,1-1.29.55,7,7,0,0,1-1.73.19l-1.13,0c-.57,0-1.15,0-1.73,0h-.93c0-.63.08-1.3.11-2,0-.37,0-.75,0-1.14Zm2.61.8h.19a2.17,2.17,0,0,0,.66-.11,1.54,1.54,0,0,0,.73-.48,1.51,1.51,0,0,0,.35-1,1.5,1.5,0,0,0-.35-1.1,1.45,1.45,0,0,0-.91-.4,8.85,8.85,0,0,0-1.1,0V12.3c0,.84,0,1.38,0,1.62H96a8,8,0,0,0,1.45-.11,2,2,0,0,0,1.12-.57A1.9,1.9,0,0,0,99,11.89a1.81,1.81,0,0,0-.59-1.43,2.61,2.61,0,0,0-1.21-.55,4.59,4.59,0,0,0-1-.1Z"/><path class="cls-2" d="M37.27,19.37h.56V23.6h-.56V20.34L35.19,23.6h-.56V19.37h.56v3.26Z"/><path class="cls-2" d="M45.92,23.6h-.56V19.82H43.28V23.6h-.56V19.37h3.2Z"/><path class="cls-2" d="M50.46,22.49H48.69l-.4,1.11h-.57l1.61-4.23h.49l1.62,4.23h-.58ZM48.86,22H50.3l-.73-2Z"/><path class="cls-2" d="M53.75,21.94V23.6h-.56V19.37h1.56a1.59,1.59,0,0,1,1.09.35,1.22,1.22,0,0,1,.4.94,1.18,1.18,0,0,1-.39.95,1.64,1.64,0,0,1-1.1.33Zm0-.45h1a1,1,0,0,0,.69-.22.75.75,0,0,0,.24-.6.79.79,0,0,0-.24-.61,1,1,0,0,0-.65-.24h-1Z"/><path class="cls-2" d="M61.06,19.82H59.7V23.6h-.56V19.82H57.79v-.45h3.27Z"/><path class="cls-2" d="M66.12,23.6h-.56v-2H63.43v2h-.56V19.37h.56v1.82h2.13V19.37h.56Z"/><path class="cls-2" d="M70.69,21.64H68.86v1.5H71v.46H68.3V19.37H71v.45h-2.1v1.37h1.83Z"/><path class="cls-2" d="M73.43,21.94V23.6h-.56V19.37h1.56a1.6,1.6,0,0,1,1.09.35,1.35,1.35,0,0,1,0,1.89,1.67,1.67,0,0,1-1.11.33Zm0-.45h1a1,1,0,0,0,.69-.22.78.78,0,0,0,.23-.6.82.82,0,0,0-.23-.61,1,1,0,0,0-.66-.24h-1Z"/><path class="cls-2" d="M78.4,21.09h1a1.55,1.55,0,0,1,1,.34,1.13,1.13,0,0,1,.37.9,1.18,1.18,0,0,1-.37.92,1.55,1.55,0,0,1-1,.35H77.84V19.37h.56Zm0,.46v1.59h1a.87.87,0,0,0,.64-.22.77.77,0,0,0,.23-.59.74.74,0,0,0-.22-.57.89.89,0,0,0-.63-.21Zm3.52,2.05h-.56V19.37h.56Z"/><path class="cls-3" d="M14.19,28.38A14.19,14.19,0,1,1,28.38,14.19,14.21,14.21,0,0,1,14.19,28.38Zm0-27.79A13.61,13.61,0,1,0,27.8,14.19,13.61,13.61,0,0,0,14.19.59Z"/><path class="cls-4" d="M15,7.42a.48.48,0,0,0,.07-.23.44.44,0,0,0-.44-.44H16.7l-3.77,5.8H11.68L15,7.43Z"/><path class="cls-5" d="M18,23.54h-5a1.25,1.25,0,0,0,1.26-1.25V16a2.52,2.52,0,0,0-2.51-2.51h2.51A2.49,2.49,0,0,1,16.7,16v6.28A1.25,1.25,0,0,0,18,23.54Z"/><path class="cls-6" d="M22.68,16v.78a2.51,2.51,0,0,1-2.51,2.52H17.66a2.52,2.52,0,0,0,2.51-2.52V16a2.52,2.52,0,0,0-2.51-2.51h2.51A2.51,2.51,0,0,1,22.68,16Z"/><path class="cls-7" d="M12,16.79H7a1.26,1.26,0,0,0,1.26-1.26V9.26A2.51,2.51,0,0,0,5.71,6.75H8.22A2.52,2.52,0,0,1,10,7.48a2.48,2.48,0,0,1,.74,1.78v6.27A1.25,1.25,0,0,0,12,16.79Z"/></g></g></svg>